<svg t="1664467133012" class="icon" viewBox="0 0 1024 1024" version="1.1" xmlns="http://www.w3.org/2000/svg" p-id="12325" width="128" height="128">
  <path d="M793.2 310.8v519.1H236.8V165.8H648" fill="#FFF061" p-id="12326"></path>
  <path d="M803.2 839.9H226.8V155.8H648v20H246.8v644.1h536.4V310.8h20z" fill="#6D5346" p-id="12327"></path>
  <path d="M552.2 450.2l-82 20.7 22.1-76.9 201.9-192.3 63.1 59.1z" fill="#BBE4FF" p-id="12328"></path>
  <path d="M455.8 484.9l27.6-96.2L694.2 188l77.9 73-215 198.3-101.3 25.6z m45.3-85.5L484.6 457l62.7-15.8 195.4-180.3-48.4-45.4-193.2 183.9z" fill="#6D5346" p-id="12329"></path>
  <path d="M735.3 280.8c28.3-26.4 45.2-43.3 45.2-43.3 14-16.3 8-40.1-8.8-53.5-22.8-18.2-42-13.2-59.8 0.2-28.3 26.4-38.6 37.3-38.6 37.3" fill="#BBE4FF" p-id="12330"></path>
  <path d="M742.1 288.1l-13.7-14.6c25.8-24.1 42.3-40.4 44.7-42.8 4.9-5.9 5.4-12.3 5-16.7-0.8-8.2-5.5-16.5-12.7-22.2-16-12.8-29.7-12.8-47.2 0.1-27.3 25.5-37.7 36.4-37.8 36.5l-14.5-13.7c0.4-0.5 10.9-11.5 39-37.8l0.4-0.4 0.4-0.3c25-18.8 48.6-18.8 72.1 0 11.5 9.2 18.8 22.3 20.1 36 1.1 11.7-2.4 23-10 31.8l-0.5 0.6c0 0.1-17.2 17.3-45.3 43.5z" fill="#6D5346" p-id="12331"></path>
  <path d="M326.6 309.4h251.3" fill="#FFF061" p-id="12332"></path>
  <path d="M326.6 299.4h251.3v20H326.6z" fill="#6D5346" p-id="12333"></path>
  <path d="M326.6 399.1h161.5" fill="#FFF061" p-id="12334"></path>
  <path d="M326.6 389.1h161.5v20H326.6z" fill="#6D5346" p-id="12335"></path>
  <path d="M326.6 587h161.5" fill="#FFF061" p-id="12336"></path>
  <path d="M326.6 577h161.5v20H326.6z" fill="#6D5346" p-id="12337"></path>
  <path d="M326.6 692.9h371.3" fill="#FFF061" p-id="12338"></path>
  <path d="M326.6 682.9h371.3v20H326.6z" fill="#6D5346" p-id="12339"></path>
  <path d="M326.6 470.9h89.7" fill="#FFF061" p-id="12340"></path>
  <path d="M326.6 460.9h89.7v20h-89.7z" fill="#6D5346" p-id="12341"></path>
</svg>