<svg t="1665034907048" class="icon" viewBox="0 0 1024 1024" version="1.1" xmlns="http://www.w3.org/2000/svg" p-id="7902" width="128" height="128"><path d="M859.1 966.3H164.7c-6.6 0-11.9-5.3-11.9-11.9V75.8c0-6.6 5.3-11.9 11.9-11.9h694.4c6.6 0 11.9 5.3 11.9 11.9v878.6c0 6.5-5.3 11.9-11.9 11.9z" fill="#39AFDA" p-id="7903"></path><path d="M272.1 63.9c-65.9 0-119.3 53.4-119.3 119.3v663.7c0 23.6 6.9 45.5 18.7 64 12.2 4.2 25.2 6.6 38.9 6.6h479.5c65.9 0 119.3-53.4 119.3-119.3V134.4c0-23.6-6.9-45.5-18.7-64-12.2-4.2-25.2-6.6-38.9-6.6H272.1z" fill="#9CE4F3" p-id="7904"></path><path d="M324.1 112.6c-65.9 0-119.3 53.4-119.3 119.3v663.7c0 7.4 0.8 14.6 2.1 21.6 1.2 0 2.3 0.2 3.5 0.2h479.5c65.9 0 119.3-53.4 119.3-119.3V134.4c0-7.4-0.8-14.6-2.1-21.6-1.2 0-2.3-0.2-3.5-0.2H324.1z" fill="#52C5F8" p-id="7905"></path><path d="M758.5 160.1H265.2c-3.2 0-5.7 2.6-5.7 5.7v603.8c0 3.2 2.6 5.7 5.7 5.7h493.3c3.2 0 5.7-2.6 5.7-5.7V165.8c0.1-3.2-2.5-5.7-5.7-5.7zM605.9 878.6H408.1c-1.5 0-2.7-1.2-2.7-2.7v-48.3c0-1.5 1.2-2.7 2.7-2.7h197.8c1.5 0 2.7 1.2 2.7 2.7v48.3c0 1.5-1.2 2.7-2.7 2.7z" fill="#FFFFFF" p-id="7906"></path><path d="M486.5 543h-55.3c-7.2 0-13-5.8-13-13s5.8-13 13-13h55.3v-22.8h-55.3c-7.2 0-13-5.8-13-13s5.8-13 13-13h43.4L416.1 376c-10.3-16.2 1.4-37.5 20.6-37.5h1.2c9.2 0 17.6 5.2 21.8 13.4l25.1 49.6c13 26.6 17.5 35.7 27 54.6h1.7c10.2-18.9 14.7-29.1 27-54.6l24.8-49.5c4.1-8.3 12.6-13.5 21.8-13.5 19.3 0 30.9 21.3 20.6 37.5l-58.8 92.4h43.8c7.2 0 13 5.8 13 13s-5.8 13-13 13h-55v22.8h55c7.2 0 13 5.8 13 13s-5.8 13-13 13h-55v28.4c0 14.1-11.4 25.6-25.6 25.6-14.1 0-25.6-11.4-25.6-25.6V543z" fill="#F24500" p-id="7907"></path></svg>